# xmcd
# 
# Track frame offsets:
#     150
#     6784
#     26263
#     46116
#     66234
#     88588
#     106444
#     114182
#     131984
#     148439
#     166040
#     188295
#     210733
#     228650
#     247379
#     268136
#     291313
#     310088
# 
# Disc length: 4331
# 
# Revision: 2
# Processed by: cddbd v1.5.2PL0 Copyright (c) Steve Scherf et al.
# Submitted via: fre:ac v1.0.17
# 
DISCID=0510e912
DTITLE=Usher - Here I Stand
DYEAR=2008
DGENRE=R&B
TTITLE0=Intro
TTITLE1=Love In This Club feat. Young Jeezy
TTITLE2=This Ain´t Sex
TTITLE3=Trading Places
TTITLE4=Moving Mountains
TTITLE5=What´s Your Name feat. Will.I.Am
TTITLE6=Prayer For You (Interlude)
TTITLE7=Something Special
TTITLE8=Love You Gently
TTITLE9=Best Thing feat. Jay-Z
TTITLE10=Before I Met You
TTITLE11=His Mistakes
TTITLE12=Appetite
TTITLE13=What´s A Man To Do
TTITLE14=Lifetime
TTITLE15=Love In This Club Pt. 2 feat. Beyoncé And Lil Wayne
TTITLE16=Here I Stand
TTITLE17=Will Work For Love
EXTD=
EXTT0=
EXTT1=
EXTT2=
EXTT3=
EXTT4=
EXTT5=
EXTT6=
EXTT7=
EXTT8=
EXTT9=
EXTT10=
EXTT11=
EXTT12=
EXTT13=
EXTT14=
EXTT15=
EXTT16=
EXTT17=
PLAYORDER=
